<?xml version="1.0" encoding="utf-8"?>
<!-- Generator: Adobe Illustrator 25.2.1, SVG Export Plug-In . SVG Version: 6.00 Build 0)  -->
<svg version="1.1" id="Layer_1" xmlns="http://www.w3.org/2000/svg" xmlns:xlink="http://www.w3.org/1999/xlink" x="0px" y="0px"
	 viewBox="0 0 100 125" style="enable-background:new 0 0 100 125;" xml:space="preserve">
<style type="text/css">
	.st0{fill:#00491E;}
</style>
<g>
	<path class="st0" d="M80.9,32.6c-1.4,2.9-3.9,4.8-5.4,7.5c-0.3,0.5-0.9,1-1.1,1.5c-1.4,3.2-3.9,5.5-6.6,7.6
		c-6.5,5-13.5,9.1-21.7,10.5c-6.2,1.1-12.5,1.6-18.9,1.7c-3.7,0.1-7.4,0.4-11,1.1c-1.6,0.1-3.1,0.7-4.3,1.8
		c-0.4,0.4-0.8,0.6-1.3,0.8c-0.5,0.4-1.3,0.4-1.7-0.1c-0.5-0.6-0.4-1.4,0.2-1.9c0,0,0.1-0.1,0.1-0.1c4-2.2,5.2-6.4,7.4-10
		c2.9-4.7,7.4-7.5,12.3-9.6c5.5-2.4,11.5-3.6,17.5-3.6c5.4,0,10.7-0.3,16.1-0.9c5.2-0.8,10.2-2.7,14.6-5.6
		C78.4,32.5,79.4,31.9,80.9,32.6z M15.4,60.3c0.4,0.1,0.8,0.1,1.2,0.1c7.2-1.1,14.5-0.9,21.8-1.6c5.4-0.5,10.9-1,16-3.4
		c4.9-2.3,9.4-5.1,13.6-8.5c2.1-1.7,4.3-3.7,4.7-6.8c-3.4,1.7-6.6,3.6-10,5c-8.3,3.4-17.2,5-26,6.5c-0.7,0.1-1.5,0.1-2.2,0
		c-0.6-0.1-1.4-0.2-1.3-1c0.1-0.7,0.7-0.5,1.3-0.6c4-0.2,7.9-1.2,11.8-1.9C52,47,57.7,45.3,63.1,43c1.3-0.5,2.5-1.2,3.6-1.9
		c1.1-0.6,2.1-1.2,3.2-1.8c-6.1,1.2-12.4,1.9-18.6,1.9c-7,0.1-13.9,0.4-20.5,3.3c-5.1,2.3-9.7,5.2-12.6,10.1
		C17.2,56.3,16.4,58.2,15.4,60.3L15.4,60.3z"/>
	<path class="st0" d="M12.5,14.9c0-0.7,0.5-1.2,1.1-1.3c4.6-1.2,8.4-4.4,12.9-5.8c5.7-1.9,11.9-2.1,17.7-0.6
		c4.5,1.3,8.5,3.6,12.7,5.5c2.5,1.1,4.9,1.9,7.6,1c0.5-0.2,1-0.2,1.5-0.1c1,0.2,1.5,0.8,0.7,1.8c-1.6,2.2-4.1,3.3-6.4,4.5
		c-1,0.5-2.2,0.8-3.2,1.3C51,24.2,44.7,24,38.2,22c-3.6-1.2-7.1-2.6-10.5-4.3c-4.3-2.1-9.1-2.9-13.8-2.4
		C13.4,15.5,12.9,15.3,12.5,14.9z M61.9,16.4c-3-0.1-6.1,0.1-9.1,0.5c-3,0.3-6.1,0-9.1-0.8c-5.1-1.7-10.1-3.3-15.9-5.1
		c2.3-0.7,4.7-0.7,7-0.1c3.3,1,6.5,2.3,9.9,3.3c3.5,1.2,7.3,1.3,10.9,0.3c-13.3-8.8-24.9-8.7-35.1-1.3c0.7,0.8,1.7,0.6,2.6,0.8
		c1.8,0.3,3.5,0.8,5.1,1.6c4,1.9,8.1,3.5,12.3,4.8c7.2,2.1,13.9,0.9,20.4-2.6C61.5,17.5,61.8,17,61.9,16.4z"/>
	<path class="st0" d="M70,82.4c-3.3,3.4-7.1,5.5-10.6,7.9c-2,1.4-4.2,2.4-5.9,4.2c-0.2,0.2-0.5,0.4-0.8,0.6
		c-0.5,0.2-1.1,0.1-1.5-0.2c-0.3-0.3-0.3-0.8,0-1.1c2.3-3,2.1-6.7,2.9-10.2c1.6-6.7,4.7-12.7,11.6-15.6c3.6-1.5,5.5-4.8,8-7.5
		c0.1-0.2,0.2-0.4,0.3-0.6c0.4-0.7,0.8-1.7,1.8-1.4c1,0.4,0.5,1.5,0.4,2.3c-0.1,1.4,0,2.7,0.1,4.1C76.9,71.6,74.4,78.2,70,82.4z
		 M72.6,65.1c-1.9,2.2-4.3,3.8-6.9,4.9c-6.5,2.7-10.7,13.2-9.9,20c1.1-0.4,2.1-1,3-1.7c3.3-2.5,6.7-4.7,9.7-7.5
		c3.1-2.8,4.5-6.3,5.6-10c0.3-0.7,0.2-1.5-0.4-2.1c-0.9,0.5-1.2,1.4-1.7,2.2c-2.4,3.7-5.1,7.3-8.8,9.8c-0.8,0.6-1.9,2.2-2.8,0.8
		c-0.7-1,1.2-1.5,1.9-2.1C66.8,75.6,70.4,70.6,72.6,65.1z"/>
</g>
</svg>
